# xmcd
#
# Track frame offsets: 
#        150
#        22947
#        40206
#        58999
#        80068
#        98105
#        115599
#        140715
#        161630
#        181476
#        200802
#        219995
#
# Disc length: 3158 seconds
#
# Revision: 0
# Processed by: cddbd v1.4PL0 Copyright (c) Steve Scherf et al.
# Submitted via: ExactAudioCopy v0.90b4
#
DISCID=ac0c540c
DTITLE=Fathead - First Class Riff-Raff
DYEAR=2002
DGENRE=Blues
TTITLE0=First Class Riff-Raff
TTITLE1=Cockle Doodle Do
TTITLE2=Hard Times
TTITLE3=Just Another Day
TTITLE4=I Want You
TTITLE5=She's Got the Look (She's Got the Touch)
TTITLE6=Shake This Feeling
TTITLE7=The Low Life
TTITLE8=Living Like a King
TTITLE9=Greed (Share the Wealth)
TTITLE10=Same Old Thing
TTITLE11=I've Been Bluesified
EXTD=
EXTT0=
EXTT1=
EXTT2=
EXTT3=
EXTT4=
EXTT5=
EXTT6=
EXTT7=
EXTT8=
EXTT9=
EXTT10=
EXTT11=
PLAYORDER=
